<?xml version="1.0" encoding="UTF-8" standalone="no"?>
<!-- Created with Inkscape (http://www.inkscape.org/) -->
<svg xmlns:dc="http://purl.org/dc/elements/1.1/" xmlns:cc="http://creativecommons.org/ns#" xmlns:rdf="http://www.w3.org/1999/02/22-rdf-syntax-ns#" xmlns:svg="http://www.w3.org/2000/svg" xmlns="http://www.w3.org/2000/svg" version="1.0" width="24" height="24" id="svg2">
  <metadata id="metadata31">
    <rdf:RDF>
      <cc:Work rdf:about="">
        <dc:format>image/svg+xml</dc:format>
        <dc:type rdf:resource="http://purl.org/dc/dcmitype/StillImage"/>
        <dc:title/>
      </cc:Work>
    </rdf:RDF>
  </metadata>
  <defs id="defs4"/>
  <path d="M 12,2.5 C 6.756,2.5 2.5,6.756 2.5,12 c 0,5.244 4.256,9.5 9.5,9.5 c 5.244,0 9.5,-4.256 9.5,-9.5 C 21.5,6.756 17.244,2.5 12,2.5 z M 12,8 c 2,-1.25 4,-1.25 6,0 l 0,8 c -2,-1.25 -4,-1.25 -6,0 C 10,14.75 8,14.75 6,16 L 6,8 C 8,6.75 10,6.75 12,8 z M 7.4,8.8437 L 7.4,13.9 C 8.65,13.65 9.8,13.72 11,14 L 11,9.0625 C 9.75,8.39 8.6,8.39 7.4,8.8437 z m 9.2,0 C 15.4,8.39 14.25,8.39 13,9.0625 L 13,14 c 1.2,-0.28 2.35,-0.35 3.6,-0.1 l 0,-5.0563 z" id="fg" style="fill:black;fill-opacity:1"/>
</svg>