<?xml version="1.0" encoding="UTF-8" standalone="no"?>
<!DOCTYPE svg PUBLIC "-//W3C//DTD SVG 20010904//EN"
              "http://www.w3.org/TR/2001/REC-SVG-20010904/DTD/svg10.dtd">

<svg xmlns="http://www.w3.org/2000/svg"
     width="1.79167in" height="2.02778in"
     viewBox="0 0 129 146">
  <path id="Selection"
        fill="none" stroke="black" stroke-width="1"
        d="M 93.90,26.00
           C 97.49,35.99 94.43,41.14 98.04,53.00
             103.97,72.51 108.85,75.80 113.39,100.00
             114.10,103.79 115.17,109.23 114.90,113.00
             114.47,119.19 109.95,128.50 104.91,132.15
             102.78,133.69 100.41,134.47 98.00,135.44
             94.24,136.96 92.17,138.28 88.00,137.20
             80.97,135.38 70.14,126.39 63.00,126.01
             55.55,125.60 46.62,135.15 39.04,130.26
             32.16,125.83 27.65,109.77 25.00,102.00
             21.51,91.80 18.14,89.80 18.00,78.00
             17.94,72.64 17.67,67.12 19.56,62.00
             19.56,62.00 28.62,46.00 28.62,46.00
             31.38,40.46 30.97,35.85 36.10,31.39
             40.92,27.20 47.18,26.60 53.00,24.64
             61.20,21.89 69.42,16.86 78.00,15.75
             85.99,15.87 91.03,18.03 93.90,26.00 Z" />
</svg>
