<?xml version="1.0" encoding="UTF-8" standalone="no"?>
<!DOCTYPE svg PUBLIC "-//W3C//DTD SVG 20010904//EN"
              "http://www.w3.org/TR/2001/REC-SVG-20010904/DTD/svg10.dtd">

<svg xmlns="http://www.w3.org/2000/svg"
     width="2.99963in" height="2.51357in"
     viewBox="0 0 216 181">
  <path id="Selection"
        fill="none" stroke="black" stroke-width="1"
        d="M 165.00,20.87
           C 165.00,20.87 186.00,31.36 186.00,31.36
             192.65,33.24 201.64,27.46 207.77,37.09
             208.78,38.67 209.27,40.20 209.61,42.00
             210.96,47.30 211.58,52.83 209.61,58.00
             204.93,69.58 199.02,67.44 199.00,82.00
             199.00,82.00 199.00,97.00 199.00,97.00
             198.95,106.96 192.52,124.54 185.67,131.82
             179.06,138.83 164.48,142.88 155.00,143.00
             151.15,143.04 146.41,142.47 143.10,144.74
             138.96,147.58 136.84,154.72 134.04,159.00
             130.20,164.85 119.80,172.44 113.00,174.37
             105.53,176.48 94.69,171.49 89.00,166.80
             86.49,164.74 81.78,160.07 79.00,158.88
             75.03,157.19 71.68,159.99 66.00,159.47
             44.95,157.55 47.08,128.75 42.86,121.00
             38.68,113.32 30.26,111.19 24.76,103.99
             20.26,98.09 19.73,94.78 16.38,89.00
             14.03,84.93 10.50,80.77 10.12,76.00
             9.72,71.07 12.00,66.22 14.31,62.00
             17.44,56.30 32.49,38.05 37.29,33.17
             45.33,24.99 60.56,19.41 72.00,19.04
             75.47,18.93 80.50,19.70 84.00,20.28
             84.00,20.28 103.00,24.92 103.00,24.92
             103.00,24.92 135.00,17.43 135.00,17.43
             145.34,16.15 155.35,16.74 165.00,20.87 Z" />
</svg>
