<?xml version="1.0" encoding="UTF-8" standalone="no"?>
<!DOCTYPE svg PUBLIC "-//W3C//DTD SVG 20010904//EN"
              "http://www.w3.org/TR/2001/REC-SVG-20010904/DTD/svg10.dtd">

<svg xmlns="http://www.w3.org/2000/svg"
     width="2.1664in" height="1.95809in"
     viewBox="0 0 156 141">
  <path id="Selection"
        fill="none" stroke="black" stroke-width="1"
        d="M 82.91,15.22
           C 88.86,20.60 90.75,28.89 97.09,34.33
             97.09,34.33 115.00,47.30 115.00,47.30
             123.52,54.63 130.86,67.59 131.00,79.00
             131.00,79.00 131.00,88.00 131.00,88.00
             131.04,90.10 131.02,92.04 132.02,93.96
             134.47,98.65 147.64,104.79 141.00,118.00
             140.16,119.68 138.99,121.44 137.67,122.79
             135.77,124.74 133.66,126.00 131.00,126.61
             122.17,128.62 109.96,122.13 101.00,121.17
             87.92,119.77 83.97,125.65 76.00,124.80
             70.58,124.22 69.26,121.35 63.00,121.05
             55.37,120.68 51.49,123.99 44.29,118.20
             33.20,109.28 36.52,96.48 33.43,90.00
             31.76,86.49 27.47,82.40 24.90,79.00
             20.78,73.56 15.94,64.70 14.52,58.00
             12.50,48.48 17.67,40.50 24.01,34.00
             33.49,24.28 44.67,15.10 58.00,11.52
             65.47,10.33 77.02,9.90 82.91,15.22 Z" />
</svg>
