<?xml version="1.0" encoding="UTF-8" standalone="no"?>
<!DOCTYPE svg PUBLIC "-//W3C//DTD SVG 20010904//EN"
              "http://www.w3.org/TR/2001/REC-SVG-20010904/DTD/svg10.dtd">

<svg xmlns="http://www.w3.org/2000/svg"
     width="2.30527in" height="2.12473in"
     viewBox="0 0 166 153">
  <path id="Selection"
        fill="none" stroke="black" stroke-width="1"
        d="M 115.98,25.04
           C 117.10,27.15 117.01,29.68 116.93,32.00
             116.50,43.96 121.31,45.04 124.10,56.00
             124.10,56.00 128.73,77.00 128.73,77.00
             128.73,77.00 131.49,97.00 131.49,97.00
             134.18,106.81 145.54,116.88 143.55,125.00
             141.41,133.76 125.00,138.46 117.00,137.90
             105.17,137.08 104.77,129.07 90.00,129.00
             90.00,129.00 73.00,129.91 73.00,129.91
             69.59,129.65 65.35,128.26 62.00,127.29
             49.91,123.82 41.73,120.86 36.47,108.00
             30.74,93.97 37.85,89.73 38.00,77.00
             38.05,72.28 38.16,67.26 35.73,63.04
             31.92,56.44 13.93,43.42 22.14,32.43
             24.83,28.83 29.32,30.83 35.00,29.21
             41.17,27.46 47.63,22.19 54.00,22.18
             59.67,22.18 68.28,27.26 74.00,26.57
             78.14,26.08 86.86,19.89 92.00,17.70
             99.31,16.06 112.11,17.75 115.98,25.04 Z" />
</svg>
