<?xml version="1.0" encoding="UTF-8" standalone="no"?>
<!DOCTYPE svg PUBLIC "-//W3C//DTD SVG 20010904//EN"
              "http://www.w3.org/TR/2001/REC-SVG-20010904/DTD/svg10.dtd">

<svg xmlns="http://www.w3.org/2000/svg"
     width="2.0553in" height="1.47204in"
     viewBox="0 0 148 106">
  <path id="Selection"
        fill="none" stroke="black" stroke-width="1"
        d="M 78.00,13.92
           C 84.76,17.46 90.46,24.26 99.00,26.70
             111.53,30.28 124.75,23.53 132.08,39.00
             135.21,45.60 132.76,51.12 133.04,58.00
             133.23,62.72 134.65,67.35 131.28,71.48
             128.14,75.32 117.01,79.93 112.00,83.44
             112.00,83.44 99.00,93.39 99.00,93.39
             91.82,98.10 81.47,100.11 73.00,100.00
             63.46,99.87 58.15,94.93 51.00,89.28
             51.00,89.28 44.21,83.82 44.21,83.82
             44.21,83.82 38.79,77.10 38.79,77.10
             38.79,77.10 32.30,71.63 32.30,71.63
             32.30,71.63 26.71,65.04 26.71,65.04
             21.74,59.43 19.18,59.31 18.75,51.00
             18.35,43.37 20.66,39.10 24.88,33.00
             33.35,20.79 42.83,15.29 57.00,11.52
             63.23,10.53 72.35,10.96 78.00,13.92 Z" />
</svg>
