<?xml version="1.0" encoding="UTF-8" standalone="no"?>
<!DOCTYPE svg PUBLIC "-//W3C//DTD SVG 20010904//EN"
              "http://www.w3.org/TR/2001/REC-SVG-20010904/DTD/svg10.dtd">

<svg xmlns="http://www.w3.org/2000/svg"
     width="2.62467in" height="1.84699in"
     viewBox="0 0 189 133">
  <path id="Selection"
        fill="none" stroke="black" stroke-width="1"
        d="M 60.00,8.74
           C 65.22,8.59 68.89,5.37 74.00,7.25
             82.38,10.33 96.15,21.85 104.00,22.58
             113.38,23.46 123.92,8.44 134.87,13.56
             140.56,16.22 138.93,27.60 139.00,33.00
             139.18,45.91 147.31,44.39 148.48,60.00
             149.16,69.01 144.74,77.83 144.29,81.00
             143.61,85.73 146.97,87.44 146.44,93.00
             145.97,97.99 143.42,105.20 138.96,107.87
             138.96,107.87 133.00,110.63 133.00,110.63
             129.01,112.88 126.96,115.26 122.00,115.80
             117.00,116.34 104.00,113.75 101.74,108.79
             100.19,105.39 101.29,95.10 95.86,90.43
             88.23,83.85 78.99,90.29 68.00,83.98
             64.71,82.10 61.33,80.17 59.22,76.91
             56.38,72.52 55.70,65.41 52.49,61.01
             48.56,55.62 39.24,50.54 35.56,45.91
             29.76,38.65 26.68,17.85 32.65,10.11
             35.06,6.98 37.33,6.32 41.00,5.64
             49.33,5.58 55.47,8.86 60.00,8.74 Z" />
</svg>
